# xmcd
#
# Track frame offsets: 
#        150
#        23506
#        51587
#        73370
#        88089
#        103253
#        119193
#        132211
#        155326
#        264774
#
# Disc length: 3714 seconds
#
# Revision: 0
# Processed by: cddbd v1.5.2PL0 Copyright (c) Steve Scherf et al.
# Submitted via: ExactAudioCopy v1.0b4
#
DISCID=900e800a
DTITLE=Peter Green - Supernatural [ disk 1 ]
DYEAR=2007
DGENRE=Blues Rock
TTITLE0=The Green Manalishi
TTITLE1=Black Magic Woman
TTITLE2=Jumping At Shadows
TTITLE3=The Supernatural
TTITLE4=Albatross
TTITLE5=World In Harmony
TTITLE6=Oh Well!
TTITLE7=Sandy Mary
TTITLE8=Rattleshake Shake
TTITLE9=Man Of The World
EXTD=
EXTT0=
EXTT1=
EXTT2=
EXTT3=
EXTT4=
EXTT5=
EXTT6=
EXTT7=
EXTT8=
EXTT9=
PLAYORDER=
